<svg xmlns="http://www.w3.org/2000/svg" viewBox="0 0 64 64" role="img" aria-label="实验智评">
  <defs>
    <linearGradient id="bg" x1="8" y1="4" x2="56" y2="60" gradientUnits="userSpaceOnUse">
      <stop offset="0" stop-color="#0ea5e9"/>
      <stop offset="0.52" stop-color="#0369a1"/>
      <stop offset="1" stop-color="#0f766e"/>
    </linearGradient>
    <linearGradient id="paper" x1="18" y1="12" x2="46" y2="52" gradientUnits="userSpaceOnUse">
      <stop offset="0" stop-color="#ffffff"/>
      <stop offset="1" stop-color="#dff7ff"/>
    </linearGradient>
    <filter id="shadow" x="-20%" y="-20%" width="140%" height="140%">
      <feDropShadow dx="0" dy="3" stdDeviation="2.2" flood-color="#06324a" flood-opacity="0.25"/>
    </filter>
  </defs>

  <rect width="64" height="64" rx="18" fill="url(#bg)"/>
  <path d="M11 47c9 4.5 18 4.5 27 0 6.5-3.2 11.2-3.5 16-1.2v8.2H11z" fill="#38bdf8" opacity="0.28"/>
  <path d="M19 11h21l7 7v34a4 4 0 0 1-4 4H19a4 4 0 0 1-4-4V15a4 4 0 0 1 4-4z" fill="url(#paper)" filter="url(#shadow)"/>
  <path d="M40 11v7h7" fill="#bae6fd"/>

  <rect x="21" y="24" width="20" height="3.6" rx="1.8" fill="#0f5f91" opacity="0.82"/>
  <rect x="21" y="32" width="16" height="3.6" rx="1.8" fill="#0f5f91" opacity="0.55"/>
  <rect x="21" y="40" width="13" height="3.6" rx="1.8" fill="#0f5f91" opacity="0.42"/>

  <circle cx="43" cy="43" r="10" fill="#e0f2fe" stroke="#0284c7" stroke-width="2.2"/>
  <path d="M38.7 43.2l3 3.2 6-7.1" fill="none" stroke="#0369a1" stroke-width="3.2" stroke-linecap="round" stroke-linejoin="round"/>

  <circle cx="18" cy="18" r="2.2" fill="#fef08a"/>
  <path d="M50 9l1.3 2.7L54 13l-2.7 1.3L50 17l-1.3-2.7L46 13l2.7-1.3z" fill="#fef08a"/>
</svg>
